<?xml version="1.0" encoding="UTF-8"?>
<svg xmlns="http://www.w3.org/2000/svg" version="1.1" viewBox="0 0 1752.2 468.9">
  <!-- Generator: Adobe Illustrator 29.8.3, SVG Export Plug-In . SVG Version: 2.1.1 Build 3)  -->
  <defs>
    <style>
      .st0 {
        fill: #0d1012;
      }

      .st1 {
        fill: #0e1114;
      }

      .st2 {
        fill: #121417;
      }

      .st3 {
        fill: #65a531;
      }

      .st4 {
        stroke-width: 7px;
      }

      .st4, .st5 {
        fill: #fff;
        stroke: #fff;
        stroke-linecap: round;
        stroke-linejoin: round;
      }

      .st6 {
        fill: #111417;
      }

      .st7 {
        fill: #e3e3e4;
      }

      .st8 {
        fill: #67aa36;
      }

      .st9 {
        fill: #fafbf9;
      }

      .st10 {
        fill: #111315;
      }

      .st11 {
        fill: #606060;
      }

      .st12 {
        fill: #66a632;
      }

      .st13 {
        fill: #0e1013;
      }

      .st5 {
        stroke-width: 16px;
      }

      .st14 {
        fill: #62a130;
      }

      .st15 {
        fill: #0f1113;
      }

      .st16 {
        fill: #67a838;
      }

      .st17 {
        fill: #f2f6ee;
      }

      .st18 {
        fill: #1e2021;
      }

      .st19 {
        fill: #ebf3e4;
      }

      .st20 {
        fill: #65a530;
      }

      .st21 {
        fill: #e5efdc;
      }

      .st22 {
        fill: #0d1114;
      }

      .st23 {
        fill: #0f1215;
      }

      .st24 {
        fill: #101316;
      }

      .st25 {
        fill: #65a932;
      }

      .st26 {
        display: none;
      }

      .st27 {
        fill: #111316;
      }

      .st28 {
        fill: #111214;
      }

      .st29 {
        fill: #0f1114;
      }

      .st30 {
        fill: #1b1e22;
      }

      .st31 {
        fill: #0d0f11;
      }

      .st32 {
        fill: #68ab38;
      }

      .st33 {
        fill: #fdfcfc;
      }

      .st34 {
        fill: #0e1113;
      }

      .st35 {
        fill: #0c1013;
      }

      .st36 {
        fill: #101315;
      }

      .st37 {
        fill: #67a935;
      }
    </style>
  </defs>
  <g id="Layer_2" class="st26">
    <rect class="st11" x="-121" y="-76.96" width="1929" height="579"/>
  </g>
  <g id="Layer_1_copy">
    <g>
      <polygon class="st5" points="1385.57 151.37 1385.57 151.37 1385.57 151.37 1385.57 151.37"/>
      <path class="st5" d="M1385.57,151.37c-39.3,2.5-83.1-3.6-121.8.3h.1c-65.5,6.7-68.1,80.9-89.4,128.9-4.4,21.8,9.1,38.5,30.9,40.4,56.6-8.2,152,25.2,181.8-40,7.1-27.8,24.4-58.2,30.7-85.5,5.8-25.3-7.1-41.5-32.3-44.1h0ZM1369.57,214.67h0c-4.3,13.3-17.7,53.8-24.9,62.8s-16.1,11.8-25.5,12.5c-27.5,2.2-57.7-1.7-85.4,0-11.7-1.7-16.4-8.6-14.3-20.2s18.8-55,24.5-66.8,14.1-16.7,24.5-19.4c29,1.6,62.5-3.2,91-.3,20.7,2.1,14.4,18.1,10.1,31.4h0Z"/>
    </g>
    <path class="st5" d="M527.47,380.17v7.1h-107.9c.7-1.3,6-7.1,6.5-7.1h101.4Z"/>
    <path class="st5" d="M1400.47,370.67c12.8-3.2,10.1,10.6,13.7,19,2.6.9,1.7-2.3,2.1-3.8.7-2.7,2.7-14.6,3.3-15.1s7.6.3,9.4,0v28.5h-5.9v-17.8l-5.3,16.6-6.5,1.1-4.8-17.8v17.8h-5.9v-28.5h-.1,0Z"/>
    <path class="st5" d="M628.27,376.07c.6-5.5,1.7-6,7.1-5.3l.6,10.7c5.6-4.6,8.8-12.5,17.2-10.7l-10.5,12.2,11.7,16.2c-2.5-.2-6.1.7-8.3-.6-4.3-2.6-10.8-25-10.7.6h-7.1c.6-7.4-.8-15.9,0-23.1h0Z"/>
    <path class="st5" d="M1311.47,378.97c-6.3,2.5-7.3-3.1-10.1-3.6-4.4-.8-9.2,2.4-5.8,4.9s12.9,2.4,14.8,5.5c9.1,14.4-20,21.6-22.6,5.1,6.3-2.4,7.3,3,10,3.6s7.1.3,7.7-1.8c1.9-6.2-13.3-4.2-16-10.1-6.2-13.8,19.6-18.6,21.9-3.6h.1Z"/>
    <path class="st5" d="M689.97,378.97c-2.8,2.7-13.4-8-15.4-1.8s12,4.5,15.3,9.6c8.5,13.2-22.2,20.1-22.4,4,6-1.7,5.4,1.8,7.9,3.3,4.7,2.8,13.9-.9,7.4-5-4.7-3-16.9-1.9-15.2-11.7,1.9-10.4,22.8-10.6,22.3,1.5l.1.1h0Z"/>
    <path class="st5" d="M933.07,370.67c8.2-2,6.4,4.3,6.5,10.7,6.5-4.7,8.4-13.1,18.4-10.7l-10.5,12.2,11.7,16.2c-2.7-.1-5.8.6-8.3-.6s-7-11.3-7.7-11.3c-4.5,0-4.5,9-4.1,11.9h-5.9v-28.5l-.1.1h0Z"/>
    <path class="st5" d="M1235.57,378.97c-6,1.7-5.4-1.8-7.1-2.9s-7.6-1.2-8.3,1.2c-1.9,5.9,13.3,4.2,16,10.1,6.1,13.5-22,18.8-23.1,3.5,2.2-2.1,16.4,8.3,17.8,1.8s-13.4-4.5-16-10.1c-6.4-14.3,19.4-18.1,20.7-3.5v-.1Z"/>
    <path class="st5" d="M1177.47,370.67c.2.2.2,4.6,0,4.7-1.6,1.7-19.6-4-14.7,6h13.5v5.9h-14.2c-3.6,12.1,14.7,5.1,16.6,7.1s.2,4.7,0,4.7h-22.5v-28.5c3.1.6,20.6-.8,21.3,0v.1h0Z"/>
    <path class="st5" d="M612.87,370.67c.2.2.2,4.6,0,4.7-.5.6-13-.4-15.4,0-.2,4.9-1,6.4,4.3,7s10-2.2,10,1.9-11.2,2.3-14.3,3v7.1c2.4.4,14.9-.6,15.4,0s.2,4.7,0,4.7h-21.3v-28.5c3.1.6,20.6-.8,21.3,0v.1h0Z"/>
    <path class="st5" d="M1256.77,370.87c.6.4,4.7,13,7.3,10.5s1.9-13.9,10.7-10.7c-2.9,10.5-12.2,16.4-9.5,28.5h-5.9c-.2-3.9.6-8.1-.5-11.9-1.2-3.9-7.8-11.2-8.9-14.8-.9-2.9,6.1-2.1,6.9-1.6h-.1Z"/>
    <path class="st5" d="M1348.27,370.67c3.3,7.5-8.3,4.1-8.3,4.7v23.7h-7.1v-23.7c0-.7-11.6,2.7-8.3-4.7h23.7Z"/>
    <path class="st5" d="M911.97,370.87c.9-.6,5.8-.6,6.9.4-5.1,9.2-11.5,16.5-9.5,27.9h-7.1c4.7-10.4-5.3-19.6-9.5-28.5,9.3-2.1,8.7,5.4,13.6,10.6,2.4-1.2,4.7-9.9,5.5-10.5l.1.1Z"/>
    <path class="st5" d="M577.27,370.67c3.4,8.1-9.5,2.8-9.5,6.5v21.9h-5.9v-23.7c0-.7-11.6,2.7-8.3-4.7h23.7Z"/>
    <path class="st5" d="M727.97,370.67c3.4,8.1-9.5,2.8-9.5,6.5v21.9h-5.9v-23.7c0-.7-11.6,2.7-8.3-4.7h23.7Z"/>
    <path class="st5" d="M841.77,370.67c.3.3-.2,3.6,0,4.7-1.7-.2-8.3-.3-8.3,1.8v21.9h-5.9v-21.9c0-2.1-6.6-2-8.3-1.8.2-.8-.2-4.7,0-4.7,3.1,0,21.8-.8,22.5,0Z"/>
    <path class="st5" d="M770.67,370.67v23.7c2.3.4,13.7-.5,14.2,0s.2,4.7,0,4.7h-20.2v-28.5h5.9l.1.1h0Z"/>
    <rect class="st5" x="740.97" y="370.67" width="7.1" height="28.5"/>
    <path class="st5" d="M1016.97,396.37c-15.2,15.2-35.1-11.3-19.2-23.3,16.2-12.2,30.8,11.7,19.2,23.3Z"/>
    <path class="st5" d="M1003.97,375.67c11.8-3.5,12.9,16.3,5.4,18.5-12.3,3.7-12.8-16.3-5.4-18.5Z"/>
    <path class="st5" d="M1462.07,387.27v-7.1h167.8c13,0,32.6-18.2,35.3-31.1,9.4-56.6,20-113.3,27.9-170.1,3.7-26.7,15.4-64.3-21.1-72.2l-1225.9-.5c-3.9.5-8.3-3.3-8.8-7.2h1238.8c1.3,0,10.5,4.3,12.4,5.4,10.9,6.5,16.4,18.5,17.9,30.8-8.5,71.2-21.6,142-32.6,212.9-4,14-13.5,27.2-26.7,33.8-1.6.8-13,5.3-13.7,5.3h-171.4.1,0Z"/>
    <path class="st5" d="M1383.77,370.67c2.2,8.6-7.8,3.1-13.5,4.9s-3,5.5-1.2,5.7c4.4.6,9,1.4,13.5,1.2-.2,1.1.3,4.4,0,4.7-.5.5-12-.4-14.2,0-3.6,12.1,14.7,5.1,16.6,7.1s.2,4.7,0,4.7h-22.5v-28.5h21.3v.2h0Z"/>
    <path class="st5" d="M1664.87,151.27l-11.5,32.1h-136.2c-16.6-2.1-35.9,32.2-16.1,37.3,28.5,4.7,100.7-8.8,121,13,19.3,20.8-5.1,65.9-26.2,78.2s-20.1,9-25.4,9h-161.9l10.9-28.9,1.7-1.8,137.4-.2c16.6.3,35.5-29.1,16-37.4-28.9-4.9-101.6,9.3-122.2-13-18.5-20,5.5-64.2,25-77,8.6-5.6,25.9-11.4,36.1-11.4h151.2l.2.1h0Z"/>
    <polygon class="st5" points="727.97 151.27 716.47 183.37 632.47 184.47 581.47 320.87 539.37 320.87 587.97 183.27 500.17 183.27 512.67 151.27 727.97 151.27"/>
    <path class="st5" d="M953.27,151.27c-.9,4.2-9.8,31.7-11.5,32.1l-139.5.2c-18.5,3.6-26.5,20.8-29.3,37.7h153c-3.9,7.8-5.5,18.1-9.3,25.7s-1.6,4.9-4.4,5.1l-151.1.2c-2.7,9.1-12.6,25.5-3.7,33.6.8.7,8.3,4.2,8.8,4.2h139.4c-4.6,7.6-6.2,21.1-10.4,28.1s-1.2,2.6-3.2,2.7h-153c-25.4-4.1-35.4-21.1-29.3-45.8s19.2-57.7,27.7-77.8c10.1-23.7,34.9-45.9,62-45.9h153.6l.2-.1h0Z"/>
    <path class="st5" d="M1193.47,151.27c.8.2,1.5,1.3,1.3,2.5-1.5,8.8-9.4,19.9-10.3,29.4h-81.2l-4.2,1.8-49.7,135.9h-42.7l48.6-137.6h-85.4c1.9-11,6.9-21.7,11.3-32h212.3,0Z"/>
    <path class="st5" d="M1053.47,370.67c2.2.5,5.9,4.4,6.3,6.8.9,4.9-2.9,6.2-3.2,8.2s1.8,2.8,2.1,4.6c.5,2.9-.6,6,1.2,8.8-10.8,1.2-5.6-1.5-7.7-8.4-1.3-4.4-6-1.6-10.1-2.3l-.7,10.7h-6.4l1.2-28.5c5.1.7,12.5-1,17.2,0l.1.1h0Z"/>
    <path class="st5" d="M1052.77,376.77c4,6.6-5.8,7.8-10.5,7v-8.3c2-.1,9.6,0,10.5,1.4v-.1Z"/>
    <path class="st5" d="M1134.17,370.67c4.2.9,6.3,7,5.1,11s-3.3,3.4-3.3,3.8,2.8,2.1,3.3,3.8c.9,3-.6,6.8,1.4,9.8-11.5,2.3-4.9-4.9-8.9-9.5s-7.3-.8-10.1-1.2l1.2,10.7h-7.1v-28.5c5.4.8,13.4-1.1,18.4,0v.1h0Z"/>
    <path class="st5" d="M1123.67,375.67c8.3-2.8,14.5,5.9,5.5,7.9-9.6,2.1-9-6.7-5.5-7.9Z"/>
    <path class="st5" d="M875.57,370.67c1.2.3,4.8,5.2,5.2,6.8.9,4.7-2.9,6.4-3,8s3.9,13,3.2,13.6h-7.1c1-10.5-.2-11.6-10.7-10.7v10.7h-5.2c-1.4-.2-1.2-25.4-.7-28.5,5,.9,14.1-1.2,18.4,0l-.1.1h0Z"/>
    <path class="st5" d="M873.67,382.47c-.7,1.1-10,1.9-10.5,1.3v-8.3c4.4-1.2,14.6.4,10.5,7Z"/>
    <path class="st5" d="M1075.47,399.17v-28.5c5.1.3,10.7-.6,15.7.3,14.9,2.7,9.2,28.2,1.5,28.2h-17.2Z"/>
    <path class="st5" d="M1091.77,376.97c7.3,6.8-.8,22.9-9.3,17-1.6-1.1-1.7-15.8-.6-17.3s8.1-1.3,9.9.4v-.1Z"/>
    <path class="st5" d="M159.77,183.27h-26.1c24.8-83.2,109.4-137.9,195.9-118.2,33.9,7.7,65,27.5,87.5,53.6,2.3,2.7,14.2,17.1,12.6,19.6s-16.2,6.7-19.1,10.5c-12.9-17-26.4-31.6-44.6-43.1-77-48.5-179.4-6.9-206.3,77.6h.1Z"/>
    <path class="st5" d="M441.97,156.07c46.6,93.6.6,213.9-100.7,244.2l-1.9-23.7c84.7-31.3,119.7-129.8,81.5-210.4.4-1.6,19.6-11.2,21.1-10.1h0Z"/>
    <path class="st5" d="M175.27,318.57c.6.3,5.3,9,7.1,11.2,32.6,39.8,84.9,61.8,136.4,51.6l2.2,23.6c-68.7,14-142.4-24.3-173-86.4,4.4.9,25.2-1.3,27.3,0h0Z"/>
    <path class="st5" d="M204.87,240.27l-6.7,17.8-152.2-2.4c-.9-.9,3-14.4,6.5-14.2l152.4-1.2h0Z"/>
    <path class="st5" d="M93.37,291.27c-.6-.6,3.3-14.4,6.5-14.2,26.9-1,53.8-.2,80.7-1.1,2.8,0,11.4-3.2,12.3.6s-5.5,17.3-8.8,17.1c0,0-90.7-2.4-90.7-2.4Z"/>
    <path class="st5" d="M169.07,223.47l-86.4-3.9c3.1-8,1.7-12.3,11.4-13.5,16.9-2.1,42.2-.7,60.4-1.3s20-1.1,20.7,1.9l-6,16.9-.1-.1h0Z"/>
    <path class="st5" d="M356.97,226.27l-31.1,102.3-122.8.6c-1.8,0-3.9-.8-4.8-2.4-2.5-5,28.9-93.6,30.3-106.7-8.2-.2-17.4-.3-25.5-1.2s-13.6-1.1-14.9-2.8c-3-3.8,1.2-35.1,3-41.1s1.5-3.8,3.6-5.9c3.7-3.6,38-26.6,42.6-28.6,5.5-2.4,40.6-.7,48.7.1,14.6,1.5,7.3,6.5,6.5,16-1.5,19.1,19.4,19.9,30.1,8.8s5.7-14.1,9.8-19.9l42.5,1,8.4,2.3,24.9,27.2c.5,2.2-12,41.8-13.6,43.4-12,3.8-25.3,4-37.7,6.8v.1h0Z"/>
    <path class="st5" d="M216.17,316.17c-.4,0-2.2-1.7-1.3-2.5l30.4-102.5c-.5-6.1-19.3-3.8-24.4-4.2s-13.2-1.1-19.4-2.5c-.7-1.1,1.7-22.9,2.4-25.1,1.1-3.2,32.8-21.1,37.3-25.5,12.3-3.9,25.6,1.1,38.4-.2-5.7,36.5,38.9,43.2,56.3,16.5,1.9-2.9,3.6-9.2,4.8-10.6,2.5-3,29.2.8,34.7.9,3.2,5.1,16.8,15.2,17.8,20.2s-7.4,26.8-8.8,27.7c-10.4,3.1-23.8,2.2-33.9,4.9-1.8.5-3.3,1.2-4.3,2.8l-30.4,100.1h-99.6Z"/>
    <g>
      <polygon class="st5" points="1385.57 151.37 1385.57 151.37 1385.57 151.37 1385.57 151.37"/>
      <path class="st5" d="M1385.57,151.37c-39.3,2.5-83.1-3.6-121.8.3h.1c-65.5,6.7-68.1,80.9-89.4,128.9-4.4,21.8,9.1,38.5,30.9,40.4,56.6-8.2,152,25.2,181.8-40,7.1-27.8,24.4-58.2,30.7-85.5,5.8-25.3-7.1-41.5-32.3-44.1h0ZM1369.57,214.67h0c-4.3,13.3-17.7,53.8-24.9,62.8s-16.1,11.8-25.5,12.5c-27.5,2.2-57.7-1.7-85.4,0-11.7-1.7-16.4-8.6-14.3-20.2s18.8-55,24.5-66.8,14.1-16.7,24.5-19.4c29,1.6,62.5-3.2,91-.3,20.7,2.1,14.4,18.1,10.1,31.4h0Z"/>
    </g>
    <path class="st5" d="M527.47,380.17v7.1h-107.9c.7-1.3,6-7.1,6.5-7.1h101.4Z"/>
    <path class="st5" d="M1400.47,370.67c12.8-3.2,10.1,10.6,13.7,19,2.6.9,1.7-2.3,2.1-3.8.7-2.7,2.7-14.6,3.3-15.1s7.6.3,9.4,0v28.5h-5.9v-17.8l-5.3,16.6-6.5,1.1-4.8-17.8v17.8h-5.9v-28.5h-.1,0Z"/>
    <path class="st5" d="M628.27,376.07c.6-5.5,1.7-6,7.1-5.3l.6,10.7c5.6-4.6,8.8-12.5,17.2-10.7l-10.5,12.2,11.7,16.2c-2.5-.2-6.1.7-8.3-.6-4.3-2.6-10.8-25-10.7.6h-7.1c.6-7.4-.8-15.9,0-23.1h0Z"/>
    <path class="st5" d="M1311.47,378.97c-6.3,2.5-7.3-3.1-10.1-3.6-4.4-.8-9.2,2.4-5.8,4.9s12.9,2.4,14.8,5.5c9.1,14.4-20,21.6-22.6,5.1,6.3-2.4,7.3,3,10,3.6s7.1.3,7.7-1.8c1.9-6.2-13.3-4.2-16-10.1-6.2-13.8,19.6-18.6,21.9-3.6h.1Z"/>
    <path class="st5" d="M689.97,378.97c-2.8,2.7-13.4-8-15.4-1.8s12,4.5,15.3,9.6c8.5,13.2-22.2,20.1-22.4,4,6-1.7,5.4,1.8,7.9,3.3,4.7,2.8,13.9-.9,7.4-5-4.7-3-16.9-1.9-15.2-11.7,1.9-10.4,22.8-10.6,22.3,1.5l.1.1h0Z"/>
    <path class="st5" d="M933.07,370.67c8.2-2,6.4,4.3,6.5,10.7,6.5-4.7,8.4-13.1,18.4-10.7l-10.5,12.2,11.7,16.2c-2.7-.1-5.8.6-8.3-.6s-7-11.3-7.7-11.3c-4.5,0-4.5,9-4.1,11.9h-5.9v-28.5l-.1.1h0Z"/>
    <path class="st5" d="M1235.57,378.97c-6,1.7-5.4-1.8-7.1-2.9s-7.6-1.2-8.3,1.2c-1.9,5.9,13.3,4.2,16,10.1,6.1,13.5-22,18.8-23.1,3.5,2.2-2.1,16.4,8.3,17.8,1.8s-13.4-4.5-16-10.1c-6.4-14.3,19.4-18.1,20.7-3.5v-.1Z"/>
    <path class="st5" d="M1177.47,370.67c.2.2.2,4.6,0,4.7-1.6,1.7-19.6-4-14.7,6h13.5v5.9h-14.2c-3.6,12.1,14.7,5.1,16.6,7.1s.2,4.7,0,4.7h-22.5v-28.5c3.1.6,20.6-.8,21.3,0v.1h0Z"/>
    <path class="st5" d="M612.87,370.67c.2.2.2,4.6,0,4.7-.5.6-13-.4-15.4,0-.2,4.9-1,6.4,4.3,7s10-2.2,10,1.9-11.2,2.3-14.3,3v7.1c2.4.4,14.9-.6,15.4,0s.2,4.7,0,4.7h-21.3v-28.5c3.1.6,20.6-.8,21.3,0v.1h0Z"/>
    <path class="st5" d="M1256.77,370.87c.6.4,4.7,13,7.3,10.5s1.9-13.9,10.7-10.7c-2.9,10.5-12.2,16.4-9.5,28.5h-5.9c-.2-3.9.6-8.1-.5-11.9-1.2-3.9-7.8-11.2-8.9-14.8-.9-2.9,6.1-2.1,6.9-1.6h-.1Z"/>
    <path class="st5" d="M1348.27,370.67c3.3,7.5-8.3,4.1-8.3,4.7v23.7h-7.1v-23.7c0-.7-11.6,2.7-8.3-4.7h23.7Z"/>
    <path class="st5" d="M911.97,370.87c.9-.6,5.8-.6,6.9.4-5.1,9.2-11.5,16.5-9.5,27.9h-7.1c4.7-10.4-5.3-19.6-9.5-28.5,9.3-2.1,8.7,5.4,13.6,10.6,2.4-1.2,4.7-9.9,5.5-10.5l.1.1Z"/>
    <path class="st5" d="M577.27,370.67c3.4,8.1-9.5,2.8-9.5,6.5v21.9h-5.9v-23.7c0-.7-11.6,2.7-8.3-4.7h23.7Z"/>
    <path class="st5" d="M727.97,370.67c3.4,8.1-9.5,2.8-9.5,6.5v21.9h-5.9v-23.7c0-.7-11.6,2.7-8.3-4.7h23.7Z"/>
    <path class="st5" d="M841.77,370.67c.3.3-.2,3.6,0,4.7-1.7-.2-8.3-.3-8.3,1.8v21.9h-5.9v-21.9c0-2.1-6.6-2-8.3-1.8.2-.8-.2-4.7,0-4.7,3.1,0,21.8-.8,22.5,0Z"/>
    <path class="st5" d="M770.67,370.67v23.7c2.3.4,13.7-.5,14.2,0s.2,4.7,0,4.7h-20.2v-28.5h5.9l.1.1h0Z"/>
    <rect class="st5" x="740.97" y="370.67" width="7.1" height="28.5"/>
    <path class="st5" d="M1016.97,396.37c-15.2,15.2-35.1-11.3-19.2-23.3,16.2-12.2,30.8,11.7,19.2,23.3Z"/>
    <path class="st5" d="M1003.97,375.67c11.8-3.5,12.9,16.3,5.4,18.5-12.3,3.7-12.8-16.3-5.4-18.5Z"/>
    <path class="st5" d="M1462.07,387.27v-7.1h167.8c13,0,32.6-18.2,35.3-31.1,9.4-56.6,20-113.3,27.9-170.1,3.7-26.7,15.4-64.3-21.1-72.2l-1225.9-.5c-3.9.5-8.3-3.3-8.8-7.2h1238.8c1.3,0,10.5,4.3,12.4,5.4,10.9,6.5,16.4,18.5,17.9,30.8-8.5,71.2-21.6,142-32.6,212.9-4,14-13.5,27.2-26.7,33.8-1.6.8-13,5.3-13.7,5.3h-171.4.1,0Z"/>
    <path class="st5" d="M1383.77,370.67c2.2,8.6-7.8,3.1-13.5,4.9s-3,5.5-1.2,5.7c4.4.6,9,1.4,13.5,1.2-.2,1.1.3,4.4,0,4.7-.5.5-12-.4-14.2,0-3.6,12.1,14.7,5.1,16.6,7.1s.2,4.7,0,4.7h-22.5v-28.5h21.3v.2h0Z"/>
    <path class="st5" d="M1664.87,151.27l-11.5,32.1h-136.2c-16.6-2.1-35.9,32.2-16.1,37.3,28.5,4.7,100.7-8.8,121,13,19.3,20.8-5.1,65.9-26.2,78.2s-20.1,9-25.4,9h-161.9l10.9-28.9,1.7-1.8,137.4-.2c16.6.3,35.5-29.1,16-37.4-28.9-4.9-101.6,9.3-122.2-13-18.5-20,5.5-64.2,25-77,8.6-5.6,25.9-11.4,36.1-11.4h151.2l.2.1h0Z"/>
    <polygon class="st5" points="727.97 151.27 716.47 183.37 632.47 184.47 581.47 320.87 539.37 320.87 587.97 183.27 500.17 183.27 512.67 151.27 727.97 151.27"/>
    <path class="st5" d="M953.27,151.27c-.9,4.2-9.8,31.7-11.5,32.1l-139.5.2c-18.5,3.6-26.5,20.8-29.3,37.7h153c-3.9,7.8-5.5,18.1-9.3,25.7s-1.6,4.9-4.4,5.1l-151.1.2c-2.7,9.1-12.6,25.5-3.7,33.6.8.7,8.3,4.2,8.8,4.2h139.4c-4.6,7.6-6.2,21.1-10.4,28.1s-1.2,2.6-3.2,2.7h-153c-25.4-4.1-35.4-21.1-29.3-45.8s19.2-57.7,27.7-77.8c10.1-23.7,34.9-45.9,62-45.9h153.6l.2-.1h0Z"/>
    <path class="st5" d="M1193.47,151.27c.8.2,1.5,1.3,1.3,2.5-1.5,8.8-9.4,19.9-10.3,29.4h-81.2l-4.2,1.8-49.7,135.9h-42.7l48.6-137.6h-85.4c1.9-11,6.9-21.7,11.3-32h212.3,0Z"/>
    <path class="st5" d="M1053.47,370.67c2.2.5,5.9,4.4,6.3,6.8.9,4.9-2.9,6.2-3.2,8.2s1.8,2.8,2.1,4.6c.5,2.9-.6,6,1.2,8.8-10.8,1.2-5.6-1.5-7.7-8.4-1.3-4.4-6-1.6-10.1-2.3l-.7,10.7h-6.4l1.2-28.5c5.1.7,12.5-1,17.2,0l.1.1h0Z"/>
    <path class="st5" d="M1052.77,376.77c4,6.6-5.8,7.8-10.5,7v-8.3c2-.1,9.6,0,10.5,1.4v-.1Z"/>
    <path class="st5" d="M1134.17,370.67c4.2.9,6.3,7,5.1,11s-3.3,3.4-3.3,3.8,2.8,2.1,3.3,3.8c.9,3-.6,6.8,1.4,9.8-11.5,2.3-4.9-4.9-8.9-9.5s-7.3-.8-10.1-1.2l1.2,10.7h-7.1v-28.5c5.4.8,13.4-1.1,18.4,0v.1h0Z"/>
    <path class="st5" d="M1123.67,375.67c8.3-2.8,14.5,5.9,5.5,7.9-9.6,2.1-9-6.7-5.5-7.9Z"/>
    <path class="st5" d="M875.57,370.67c1.2.3,4.8,5.2,5.2,6.8.9,4.7-2.9,6.4-3,8s3.9,13,3.2,13.6h-7.1c1-10.5-.2-11.6-10.7-10.7v10.7h-5.2c-1.4-.2-1.2-25.4-.7-28.5,5,.9,14.1-1.2,18.4,0l-.1.1h0Z"/>
    <path class="st5" d="M873.67,382.47c-.7,1.1-10,1.9-10.5,1.3v-8.3c4.4-1.2,14.6.4,10.5,7Z"/>
    <path class="st5" d="M1075.47,399.17v-28.5c5.1.3,10.7-.6,15.7.3,14.9,2.7,9.2,28.2,1.5,28.2h-17.2Z"/>
    <path class="st5" d="M1091.77,376.97c7.3,6.8-.8,22.9-9.3,17-1.6-1.1-1.7-15.8-.6-17.3s8.1-1.3,9.9.4v-.1Z"/>
    <path class="st5" d="M159.77,183.27h-26.1c24.8-83.2,109.4-137.9,195.9-118.2,33.9,7.7,65,27.5,87.5,53.6,2.3,2.7,14.2,17.1,12.6,19.6s-16.2,6.7-19.1,10.5c-12.9-17-26.4-31.6-44.6-43.1-77-48.5-179.4-6.9-206.3,77.6h.1Z"/>
    <path class="st5" d="M441.97,156.07c46.6,93.6.6,213.9-100.7,244.2l-1.9-23.7c84.7-31.3,119.7-129.8,81.5-210.4.4-1.6,19.6-11.2,21.1-10.1h0Z"/>
    <path class="st5" d="M175.27,318.57c.6.3,5.3,9,7.1,11.2,32.6,39.8,84.9,61.8,136.4,51.6l2.2,23.6c-68.7,14-142.4-24.3-173-86.4,4.4.9,25.2-1.3,27.3,0h0Z"/>
    <path class="st5" d="M204.87,240.27l-6.7,17.8-152.2-2.4c-.9-.9,3-14.4,6.5-14.2l152.4-1.2h0Z"/>
    <path class="st5" d="M93.37,291.27c-.6-.6,3.3-14.4,6.5-14.2,26.9-1,53.8-.2,80.7-1.1,2.8,0,11.4-3.2,12.3.6s-5.5,17.3-8.8,17.1c0,0-90.7-2.4-90.7-2.4Z"/>
    <path class="st5" d="M169.07,223.47l-86.4-3.9c3.1-8,1.7-12.3,11.4-13.5,16.9-2.1,42.2-.7,60.4-1.3s20-1.1,20.7,1.9l-6,16.9-.1-.1h0Z"/>
    <path class="st5" d="M356.97,226.27l-31.1,102.3-122.8.6c-1.8,0-3.9-.8-4.8-2.4-2.5-5,28.9-93.6,30.3-106.7-8.2-.2-17.4-.3-25.5-1.2s-13.6-1.1-14.9-2.8c-3-3.8,1.2-35.1,3-41.1s1.5-3.8,3.6-5.9c3.7-3.6,38-26.6,42.6-28.6,5.5-2.4,40.6-.7,48.7.1,14.6,1.5,7.3,6.5,6.5,16-1.5,19.1,19.4,19.9,30.1,8.8s5.7-14.1,9.8-19.9l42.5,1,8.4,2.3,24.9,27.2c.5,2.2-12,41.8-13.6,43.4-12,3.8-25.3,4-37.7,6.8v.1h0Z"/>
    <path class="st5" d="M216.17,316.17c-.4,0-2.2-1.7-1.3-2.5l30.4-102.5c-.5-6.1-19.3-3.8-24.4-4.2s-13.2-1.1-19.4-2.5c-.7-1.1,1.7-22.9,2.4-25.1,1.1-3.2,32.8-21.1,37.3-25.5,12.3-3.9,25.6,1.1,38.4-.2-5.7,36.5,38.9,43.2,56.3,16.5,1.9-2.9,3.6-9.2,4.8-10.6,2.5-3,29.2.8,34.7.9,3.2,5.1,16.8,15.2,17.8,20.2s-7.4,26.8-8.8,27.7c-10.4,3.1-23.8,2.2-33.9,4.9-1.8.5-3.3,1.2-4.3,2.8l-30.4,100.1h-99.6Z"/>
  </g>
  <g id="Layer_1_copy_2">
    <g>
      <polygon class="st4" points="1385.57 151.37 1385.57 151.37 1385.57 151.37 1385.57 151.37"/>
      <path class="st4" d="M1385.57,151.37c-39.3,2.5-83.1-3.6-121.8.3h.1c-65.5,6.7-68.1,80.9-89.4,128.9-4.4,21.8,9.1,38.5,30.9,40.4,56.6-8.2,152,25.2,181.8-40,7.1-27.8,24.4-58.2,30.7-85.5,5.8-25.3-7.1-41.5-32.3-44.1h0ZM1369.57,214.67h0c-4.3,13.3-17.7,53.8-24.9,62.8s-16.1,11.8-25.5,12.5c-27.5,2.2-57.7-1.7-85.4,0-11.7-1.7-16.4-8.6-14.3-20.2s18.8-55,24.5-66.8,14.1-16.7,24.5-19.4c29,1.6,62.5-3.2,91-.3,20.7,2.1,14.4,18.1,10.1,31.4h0Z"/>
    </g>
    <path class="st4" d="M527.47,380.17v7.1h-107.9c.7-1.3,6-7.1,6.5-7.1h101.4Z"/>
    <path class="st4" d="M1400.47,370.67c12.8-3.2,10.1,10.6,13.7,19,2.6.9,1.7-2.3,2.1-3.8.7-2.7,2.7-14.6,3.3-15.1s7.6.3,9.4,0v28.5h-5.9v-17.8l-5.3,16.6-6.5,1.1-4.8-17.8v17.8h-5.9v-28.5h-.1,0Z"/>
    <path class="st4" d="M628.27,376.07c.6-5.5,1.7-6,7.1-5.3l.6,10.7c5.6-4.6,8.8-12.5,17.2-10.7l-10.5,12.2,11.7,16.2c-2.5-.2-6.1.7-8.3-.6-4.3-2.6-10.8-25-10.7.6h-7.1c.6-7.4-.8-15.9,0-23.1h0Z"/>
    <path class="st4" d="M1311.47,378.97c-6.3,2.5-7.3-3.1-10.1-3.6-4.4-.8-9.2,2.4-5.8,4.9s12.9,2.4,14.8,5.5c9.1,14.4-20,21.6-22.6,5.1,6.3-2.4,7.3,3,10,3.6s7.1.3,7.7-1.8c1.9-6.2-13.3-4.2-16-10.1-6.2-13.8,19.6-18.6,21.9-3.6h.1Z"/>
    <path class="st4" d="M689.97,378.97c-2.8,2.7-13.4-8-15.4-1.8s12,4.5,15.3,9.6c8.5,13.2-22.2,20.1-22.4,4,6-1.7,5.4,1.8,7.9,3.3,4.7,2.8,13.9-.9,7.4-5-4.7-3-16.9-1.9-15.2-11.7,1.9-10.4,22.8-10.6,22.3,1.5l.1.1h0Z"/>
    <path class="st4" d="M933.07,370.67c8.2-2,6.4,4.3,6.5,10.7,6.5-4.7,8.4-13.1,18.4-10.7l-10.5,12.2,11.7,16.2c-2.7-.1-5.8.6-8.3-.6s-7-11.3-7.7-11.3c-4.5,0-4.5,9-4.1,11.9h-5.9v-28.5l-.1.1h0Z"/>
    <path class="st4" d="M1235.57,378.97c-6,1.7-5.4-1.8-7.1-2.9s-7.6-1.2-8.3,1.2c-1.9,5.9,13.3,4.2,16,10.1,6.1,13.5-22,18.8-23.1,3.5,2.2-2.1,16.4,8.3,17.8,1.8s-13.4-4.5-16-10.1c-6.4-14.3,19.4-18.1,20.7-3.5v-.1Z"/>
    <path class="st4" d="M1177.47,370.67c.2.2.2,4.6,0,4.7-1.6,1.7-19.6-4-14.7,6h13.5v5.9h-14.2c-3.6,12.1,14.7,5.1,16.6,7.1s.2,4.7,0,4.7h-22.5v-28.5c3.1.6,20.6-.8,21.3,0v.1h0Z"/>
    <path class="st4" d="M612.87,370.67c.2.2.2,4.6,0,4.7-.5.6-13-.4-15.4,0-.2,4.9-1,6.4,4.3,7s10-2.2,10,1.9-11.2,2.3-14.3,3v7.1c2.4.4,14.9-.6,15.4,0s.2,4.7,0,4.7h-21.3v-28.5c3.1.6,20.6-.8,21.3,0v.1h0Z"/>
    <path class="st4" d="M1256.77,370.87c.6.4,4.7,13,7.3,10.5s1.9-13.9,10.7-10.7c-2.9,10.5-12.2,16.4-9.5,28.5h-5.9c-.2-3.9.6-8.1-.5-11.9-1.2-3.9-7.8-11.2-8.9-14.8-.9-2.9,6.1-2.1,6.9-1.6h-.1Z"/>
    <path class="st4" d="M1348.27,370.67c3.3,7.5-8.3,4.1-8.3,4.7v23.7h-7.1v-23.7c0-.7-11.6,2.7-8.3-4.7h23.7Z"/>
    <path class="st4" d="M911.97,370.87c.9-.6,5.8-.6,6.9.4-5.1,9.2-11.5,16.5-9.5,27.9h-7.1c4.7-10.4-5.3-19.6-9.5-28.5,9.3-2.1,8.7,5.4,13.6,10.6,2.4-1.2,4.7-9.9,5.5-10.5l.1.1Z"/>
    <path class="st4" d="M577.27,370.67c3.4,8.1-9.5,2.8-9.5,6.5v21.9h-5.9v-23.7c0-.7-11.6,2.7-8.3-4.7h23.7Z"/>
    <path class="st4" d="M727.97,370.67c3.4,8.1-9.5,2.8-9.5,6.5v21.9h-5.9v-23.7c0-.7-11.6,2.7-8.3-4.7h23.7Z"/>
    <path class="st4" d="M841.77,370.67c.3.3-.2,3.6,0,4.7-1.7-.2-8.3-.3-8.3,1.8v21.9h-5.9v-21.9c0-2.1-6.6-2-8.3-1.8.2-.8-.2-4.7,0-4.7,3.1,0,21.8-.8,22.5,0Z"/>
    <path class="st4" d="M770.67,370.67v23.7c2.3.4,13.7-.5,14.2,0s.2,4.7,0,4.7h-20.2v-28.5h5.9l.1.1h0Z"/>
    <rect class="st4" x="740.97" y="370.67" width="7.1" height="28.5"/>
    <path class="st4" d="M1016.97,396.37c-15.2,15.2-35.1-11.3-19.2-23.3,16.2-12.2,30.8,11.7,19.2,23.3Z"/>
    <path class="st4" d="M1003.97,375.67c11.8-3.5,12.9,16.3,5.4,18.5-12.3,3.7-12.8-16.3-5.4-18.5Z"/>
    <path class="st4" d="M1462.07,387.27v-7.1h167.8c13,0,32.6-18.2,35.3-31.1,9.4-56.6,20-113.3,27.9-170.1,3.7-26.7,15.4-64.3-21.1-72.2l-1225.9-.5c-3.9.5-8.3-3.3-8.8-7.2h1238.8c1.3,0,10.5,4.3,12.4,5.4,10.9,6.5,16.4,18.5,17.9,30.8-8.5,71.2-21.6,142-32.6,212.9-4,14-13.5,27.2-26.7,33.8-1.6.8-13,5.3-13.7,5.3h-171.4.1,0Z"/>
    <path class="st4" d="M1383.77,370.67c2.2,8.6-7.8,3.1-13.5,4.9s-3,5.5-1.2,5.7c4.4.6,9,1.4,13.5,1.2-.2,1.1.3,4.4,0,4.7-.5.5-12-.4-14.2,0-3.6,12.1,14.7,5.1,16.6,7.1s.2,4.7,0,4.7h-22.5v-28.5h21.3v.2h0Z"/>
    <path class="st4" d="M1664.87,151.27l-11.5,32.1h-136.2c-16.6-2.1-35.9,32.2-16.1,37.3,28.5,4.7,100.7-8.8,121,13,19.3,20.8-5.1,65.9-26.2,78.2s-20.1,9-25.4,9h-161.9l10.9-28.9,1.7-1.8,137.4-.2c16.6.3,35.5-29.1,16-37.4-28.9-4.9-101.6,9.3-122.2-13-18.5-20,5.5-64.2,25-77,8.6-5.6,25.9-11.4,36.1-11.4h151.2l.2.1h0Z"/>
    <polygon class="st4" points="727.97 151.27 716.47 183.37 632.47 184.47 581.47 320.87 539.37 320.87 587.97 183.27 500.17 183.27 512.67 151.27 727.97 151.27"/>
    <path class="st4" d="M953.27,151.27c-.9,4.2-9.8,31.7-11.5,32.1l-139.5.2c-18.5,3.6-26.5,20.8-29.3,37.7h153c-3.9,7.8-5.5,18.1-9.3,25.7s-1.6,4.9-4.4,5.1l-151.1.2c-2.7,9.1-12.6,25.5-3.7,33.6.8.7,8.3,4.2,8.8,4.2h139.4c-4.6,7.6-6.2,21.1-10.4,28.1s-1.2,2.6-3.2,2.7h-153c-25.4-4.1-35.4-21.1-29.3-45.8s19.2-57.7,27.7-77.8c10.1-23.7,34.9-45.9,62-45.9h153.6l.2-.1h0Z"/>
    <path class="st4" d="M1193.47,151.27c.8.2,1.5,1.3,1.3,2.5-1.5,8.8-9.4,19.9-10.3,29.4h-81.2l-4.2,1.8-49.7,135.9h-42.7l48.6-137.6h-85.4c1.9-11,6.9-21.7,11.3-32h212.3,0Z"/>
    <path class="st4" d="M1053.47,370.67c2.2.5,5.9,4.4,6.3,6.8.9,4.9-2.9,6.2-3.2,8.2s1.8,2.8,2.1,4.6c.5,2.9-.6,6,1.2,8.8-10.8,1.2-5.6-1.5-7.7-8.4-1.3-4.4-6-1.6-10.1-2.3l-.7,10.7h-6.4l1.2-28.5c5.1.7,12.5-1,17.2,0l.1.1h0Z"/>
    <path class="st4" d="M1052.77,376.77c4,6.6-5.8,7.8-10.5,7v-8.3c2-.1,9.6,0,10.5,1.4v-.1Z"/>
    <path class="st4" d="M1134.17,370.67c4.2.9,6.3,7,5.1,11s-3.3,3.4-3.3,3.8,2.8,2.1,3.3,3.8c.9,3-.6,6.8,1.4,9.8-11.5,2.3-4.9-4.9-8.9-9.5s-7.3-.8-10.1-1.2l1.2,10.7h-7.1v-28.5c5.4.8,13.4-1.1,18.4,0v.1h0Z"/>
    <path class="st4" d="M1123.67,375.67c8.3-2.8,14.5,5.9,5.5,7.9-9.6,2.1-9-6.7-5.5-7.9Z"/>
    <path class="st4" d="M875.57,370.67c1.2.3,4.8,5.2,5.2,6.8.9,4.7-2.9,6.4-3,8s3.9,13,3.2,13.6h-7.1c1-10.5-.2-11.6-10.7-10.7v10.7h-5.2c-1.4-.2-1.2-25.4-.7-28.5,5,.9,14.1-1.2,18.4,0l-.1.1h0Z"/>
    <path class="st4" d="M873.67,382.47c-.7,1.1-10,1.9-10.5,1.3v-8.3c4.4-1.2,14.6.4,10.5,7Z"/>
    <path class="st4" d="M1075.47,399.17v-28.5c5.1.3,10.7-.6,15.7.3,14.9,2.7,9.2,28.2,1.5,28.2h-17.2Z"/>
    <path class="st4" d="M1091.77,376.97c7.3,6.8-.8,22.9-9.3,17-1.6-1.1-1.7-15.8-.6-17.3s8.1-1.3,9.9.4v-.1Z"/>
    <path class="st4" d="M159.77,183.27h-26.1c24.8-83.2,109.4-137.9,195.9-118.2,33.9,7.7,65,27.5,87.5,53.6,2.3,2.7,14.2,17.1,12.6,19.6s-16.2,6.7-19.1,10.5c-12.9-17-26.4-31.6-44.6-43.1-77-48.5-179.4-6.9-206.3,77.6h.1Z"/>
    <path class="st4" d="M441.97,156.07c46.6,93.6.6,213.9-100.7,244.2l-1.9-23.7c84.7-31.3,119.7-129.8,81.5-210.4.4-1.6,19.6-11.2,21.1-10.1h0Z"/>
    <path class="st4" d="M175.27,318.57c.6.3,5.3,9,7.1,11.2,32.6,39.8,84.9,61.8,136.4,51.6l2.2,23.6c-68.7,14-142.4-24.3-173-86.4,4.4.9,25.2-1.3,27.3,0h0Z"/>
    <path class="st4" d="M204.87,240.27l-6.7,17.8-152.2-2.4c-.9-.9,3-14.4,6.5-14.2l152.4-1.2h0Z"/>
    <path class="st4" d="M93.37,291.27c-.6-.6,3.3-14.4,6.5-14.2,26.9-1,53.8-.2,80.7-1.1,2.8,0,11.4-3.2,12.3.6s-5.5,17.3-8.8,17.1c0,0-90.7-2.4-90.7-2.4Z"/>
    <path class="st4" d="M169.07,223.47l-86.4-3.9c3.1-8,1.7-12.3,11.4-13.5,16.9-2.1,42.2-.7,60.4-1.3s20-1.1,20.7,1.9l-6,16.9-.1-.1h0Z"/>
    <path class="st4" d="M356.97,226.27l-31.1,102.3-122.8.6c-1.8,0-3.9-.8-4.8-2.4-2.5-5,28.9-93.6,30.3-106.7-8.2-.2-17.4-.3-25.5-1.2s-13.6-1.1-14.9-2.8c-3-3.8,1.2-35.1,3-41.1s1.5-3.8,3.6-5.9c3.7-3.6,38-26.6,42.6-28.6,5.5-2.4,40.6-.7,48.7.1,14.6,1.5,7.3,6.5,6.5,16-1.5,19.1,19.4,19.9,30.1,8.8s5.7-14.1,9.8-19.9l42.5,1,8.4,2.3,24.9,27.2c.5,2.2-12,41.8-13.6,43.4-12,3.8-25.3,4-37.7,6.8v.1h0Z"/>
    <path class="st4" d="M216.17,316.17c-.4,0-2.2-1.7-1.3-2.5l30.4-102.5c-.5-6.1-19.3-3.8-24.4-4.2s-13.2-1.1-19.4-2.5c-.7-1.1,1.7-22.9,2.4-25.1,1.1-3.2,32.8-21.1,37.3-25.5,12.3-3.9,25.6,1.1,38.4-.2-5.7,36.5,38.9,43.2,56.3,16.5,1.9-2.9,3.6-9.2,4.8-10.6,2.5-3,29.2.8,34.7.9,3.2,5.1,16.8,15.2,17.8,20.2s-7.4,26.8-8.8,27.7c-10.4,3.1-23.8,2.2-33.9,4.9-1.8.5-3.3,1.2-4.3,2.8l-30.4,100.1h-99.6Z"/>
    <g>
      <polygon class="st20" points="1385.57 151.37 1385.57 151.37 1385.57 151.37 1385.57 151.37"/>
      <path class="st20" d="M1385.57,151.37c-39.3,2.5-83.1-3.6-121.8.3h.1c-65.5,6.7-68.1,80.9-89.4,128.9-4.4,21.8,9.1,38.5,30.9,40.4,56.6-8.2,152,25.2,181.8-40,7.1-27.8,24.4-58.2,30.7-85.5,5.8-25.3-7.1-41.5-32.3-44.1h0ZM1369.57,214.67h0c-4.3,13.3-17.7,53.8-24.9,62.8s-16.1,11.8-25.5,12.5c-27.5,2.2-57.7-1.7-85.4,0-11.7-1.7-16.4-8.6-14.3-20.2s18.8-55,24.5-66.8,14.1-16.7,24.5-19.4c29,1.6,62.5-3.2,91-.3,20.7,2.1,14.4,18.1,10.1,31.4h0Z"/>
    </g>
    <path class="st1" d="M527.47,380.17v7.1h-107.9c.7-1.3,6-7.1,6.5-7.1h101.4Z"/>
    <path class="st15" d="M1400.47,370.67c12.8-3.2,10.1,10.6,13.7,19,2.6.9,1.7-2.3,2.1-3.8.7-2.7,2.7-14.6,3.3-15.1s7.6.3,9.4,0v28.5h-5.9v-17.8l-5.3,16.6-6.5,1.1-4.8-17.8v17.8h-5.9v-28.5h-.1,0Z"/>
    <path class="st15" d="M628.27,376.07c.6-5.5,1.7-6,7.1-5.3l.6,10.7c5.6-4.6,8.8-12.5,17.2-10.7l-10.5,12.2,11.7,16.2c-2.5-.2-6.1.7-8.3-.6-4.3-2.6-10.8-25-10.7.6h-7.1c.6-7.4-.8-15.9,0-23.1h0Z"/>
    <path class="st28" d="M1311.47,378.97c-6.3,2.5-7.3-3.1-10.1-3.6-4.4-.8-9.2,2.4-5.8,4.9s12.9,2.4,14.8,5.5c9.1,14.4-20,21.6-22.6,5.1,6.3-2.4,7.3,3,10,3.6s7.1.3,7.7-1.8c1.9-6.2-13.3-4.2-16-10.1-6.2-13.8,19.6-18.6,21.9-3.6h.1Z"/>
    <path class="st2" d="M689.97,378.97c-2.8,2.7-13.4-8-15.4-1.8s12,4.5,15.3,9.6c8.5,13.2-22.2,20.1-22.4,4,6-1.7,5.4,1.8,7.9,3.3,4.7,2.8,13.9-.9,7.4-5-4.7-3-16.9-1.9-15.2-11.7,1.9-10.4,22.8-10.6,22.3,1.5l.1.1h0Z"/>
    <path class="st31" d="M933.07,370.67c8.2-2,6.4,4.3,6.5,10.7,6.5-4.7,8.4-13.1,18.4-10.7l-10.5,12.2,11.7,16.2c-2.7-.1-5.8.6-8.3-.6s-7-11.3-7.7-11.3c-4.5,0-4.5,9-4.1,11.9h-5.9v-28.5l-.1.1h0Z"/>
    <path class="st10" d="M1235.57,378.97c-6,1.7-5.4-1.8-7.1-2.9s-7.6-1.2-8.3,1.2c-1.9,5.9,13.3,4.2,16,10.1,6.1,13.5-22,18.8-23.1,3.5,2.2-2.1,16.4,8.3,17.8,1.8s-13.4-4.5-16-10.1c-6.4-14.3,19.4-18.1,20.7-3.5v-.1Z"/>
    <path class="st32" d="M1177.47,370.67c.2.2.2,4.6,0,4.7-1.6,1.7-19.6-4-14.7,6h13.5v5.9h-14.2c-3.6,12.1,14.7,5.1,16.6,7.1s.2,4.7,0,4.7h-22.5v-28.5c3.1.6,20.6-.8,21.3,0v.1h0Z"/>
    <path class="st24" d="M612.87,370.67c.2.2.2,4.6,0,4.7-.5.6-13-.4-15.4,0-.2,4.9-1,6.4,4.3,7s10-2.2,10,1.9-11.2,2.3-14.3,3v7.1c2.4.4,14.9-.6,15.4,0s.2,4.7,0,4.7h-21.3v-28.5c3.1.6,20.6-.8,21.3,0v.1h0Z"/>
    <path class="st13" d="M1256.77,370.87c.6.4,4.7,13,7.3,10.5s1.9-13.9,10.7-10.7c-2.9,10.5-12.2,16.4-9.5,28.5h-5.9c-.2-3.9.6-8.1-.5-11.9-1.2-3.9-7.8-11.2-8.9-14.8-.9-2.9,6.1-2.1,6.9-1.6h-.1Z"/>
    <path class="st30" d="M1348.27,370.67c3.3,7.5-8.3,4.1-8.3,4.7v23.7h-7.1v-23.7c0-.7-11.6,2.7-8.3-4.7h23.7Z"/>
    <path class="st34" d="M911.97,370.87c.9-.6,5.8-.6,6.9.4-5.1,9.2-11.5,16.5-9.5,27.9h-7.1c4.7-10.4-5.3-19.6-9.5-28.5,9.3-2.1,8.7,5.4,13.6,10.6,2.4-1.2,4.7-9.9,5.5-10.5l.1.1Z"/>
    <path class="st6" d="M577.27,370.67c3.4,8.1-9.5,2.8-9.5,6.5v21.9h-5.9v-23.7c0-.7-11.6,2.7-8.3-4.7h23.7Z"/>
    <path class="st23" d="M727.97,370.67c3.4,8.1-9.5,2.8-9.5,6.5v21.9h-5.9v-23.7c0-.7-11.6,2.7-8.3-4.7h23.7Z"/>
    <path class="st27" d="M841.77,370.67c.3.3-.2,3.6,0,4.7-1.7-.2-8.3-.3-8.3,1.8v21.9h-5.9v-21.9c0-2.1-6.6-2-8.3-1.8.2-.8-.2-4.7,0-4.7,3.1,0,21.8-.8,22.5,0Z"/>
    <path class="st29" d="M770.67,370.67v23.7c2.3.4,13.7-.5,14.2,0s.2,4.7,0,4.7h-20.2v-28.5h5.9l.1.1h0Z"/>
    <rect class="st18" x="740.97" y="370.67" width="7.1" height="28.5"/>
    <path class="st8" d="M1016.97,396.37c-15.2,15.2-35.1-11.3-19.2-23.3,16.2-12.2,30.8,11.7,19.2,23.3Z"/>
    <path class="st9" d="M1003.97,375.67c11.8-3.5,12.9,16.3,5.4,18.5-12.3,3.7-12.8-16.3-5.4-18.5Z"/>
    <path class="st35" d="M1462.07,387.27v-7.1h167.8c13,0,32.6-18.2,35.3-31.1,9.4-56.6,20-113.3,27.9-170.1,3.7-26.7,15.4-64.3-21.1-72.2l-1225.9-.5c-3.9.5-8.3-3.3-8.8-7.2h1238.8c1.3,0,10.5,4.3,12.4,5.4,10.9,6.5,16.4,18.5,17.9,30.8-8.5,71.2-21.6,142-32.6,212.9-4,14-13.5,27.2-26.7,33.8-1.6.8-13,5.3-13.7,5.3h-171.4.1,0Z"/>
    <path class="st36" d="M1383.77,370.67c2.2,8.6-7.8,3.1-13.5,4.9s-3,5.5-1.2,5.7c4.4.6,9,1.4,13.5,1.2-.2,1.1.3,4.4,0,4.7-.5.5-12-.4-14.2,0-3.6,12.1,14.7,5.1,16.6,7.1s.2,4.7,0,4.7h-22.5v-28.5h21.3v.2h0Z"/>
    <path class="st3" d="M1664.87,151.27l-11.5,32.1h-136.2c-16.6-2.1-35.9,32.2-16.1,37.3,28.5,4.7,100.7-8.8,121,13,19.3,20.8-5.1,65.9-26.2,78.2s-20.1,9-25.4,9h-161.9l10.9-28.9,1.7-1.8,137.4-.2c16.6.3,35.5-29.1,16-37.4-28.9-4.9-101.6,9.3-122.2-13-18.5-20,5.5-64.2,25-77,8.6-5.6,25.9-11.4,36.1-11.4h151.2l.2.1h0Z"/>
    <polygon class="st35" points="727.97 151.27 716.47 183.37 632.47 184.47 581.47 320.87 539.37 320.87 587.97 183.27 500.17 183.27 512.67 151.27 727.97 151.27"/>
    <path class="st35" d="M953.27,151.27c-.9,4.2-9.8,31.7-11.5,32.1l-139.5.2c-18.5,3.6-26.5,20.8-29.3,37.7h153c-3.9,7.8-5.5,18.1-9.3,25.7s-1.6,4.9-4.4,5.1l-151.1.2c-2.7,9.1-12.6,25.5-3.7,33.6.8.7,8.3,4.2,8.8,4.2h139.4c-4.6,7.6-6.2,21.1-10.4,28.1s-1.2,2.6-3.2,2.7h-153c-25.4-4.1-35.4-21.1-29.3-45.8s19.2-57.7,27.7-77.8c10.1-23.7,34.9-45.9,62-45.9h153.6l.2-.1h0Z"/>
    <path class="st35" d="M1193.47,151.27c.8.2,1.5,1.3,1.3,2.5-1.5,8.8-9.4,19.9-10.3,29.4h-81.2l-4.2,1.8-49.7,135.9h-42.7l48.6-137.6h-85.4c1.9-11,6.9-21.7,11.3-32h212.3,0Z"/>
    <path class="st16" d="M1053.47,370.67c2.2.5,5.9,4.4,6.3,6.8.9,4.9-2.9,6.2-3.2,8.2s1.8,2.8,2.1,4.6c.5,2.9-.6,6,1.2,8.8-10.8,1.2-5.6-1.5-7.7-8.4-1.3-4.4-6-1.6-10.1-2.3l-.7,10.7h-6.4l1.2-28.5c5.1.7,12.5-1,17.2,0l.1.1h0Z"/>
    <path class="st19" d="M1052.77,376.77c4,6.6-5.8,7.8-10.5,7v-8.3c2-.1,9.6,0,10.5,1.4v-.1Z"/>
    <path class="st37" d="M1134.17,370.67c4.2.9,6.3,7,5.1,11s-3.3,3.4-3.3,3.8,2.8,2.1,3.3,3.8c.9,3-.6,6.8,1.4,9.8-11.5,2.3-4.9-4.9-8.9-9.5s-7.3-.8-10.1-1.2l1.2,10.7h-7.1v-28.5c5.4.8,13.4-1.1,18.4,0v.1h0Z"/>
    <path class="st21" d="M1123.67,375.67c8.3-2.8,14.5,5.9,5.5,7.9-9.6,2.1-9-6.7-5.5-7.9Z"/>
    <path class="st0" d="M875.57,370.67c1.2.3,4.8,5.2,5.2,6.8.9,4.7-2.9,6.4-3,8s3.9,13,3.2,13.6h-7.1c1-10.5-.2-11.6-10.7-10.7v10.7h-5.2c-1.4-.2-1.2-25.4-.7-28.5,5,.9,14.1-1.2,18.4,0l-.1.1h0Z"/>
    <path class="st7" d="M873.67,382.47c-.7,1.1-10,1.9-10.5,1.3v-8.3c4.4-1.2,14.6.4,10.5,7Z"/>
    <path class="st25" d="M1075.47,399.17v-28.5c5.1.3,10.7-.6,15.7.3,14.9,2.7,9.2,28.2,1.5,28.2h-17.2Z"/>
    <path class="st17" d="M1091.77,376.97c7.3,6.8-.8,22.9-9.3,17-1.6-1.1-1.7-15.8-.6-17.3s8.1-1.3,9.9.4v-.1Z"/>
    <path class="st22" d="M159.77,183.27h-26.1c24.8-83.2,109.4-137.9,195.9-118.2,33.9,7.7,65,27.5,87.5,53.6,2.3,2.7,14.2,17.1,12.6,19.6s-16.2,6.7-19.1,10.5c-12.9-17-26.4-31.6-44.6-43.1-77-48.5-179.4-6.9-206.3,77.6h.1Z"/>
    <path class="st12" d="M441.97,156.07c46.6,93.6.6,213.9-100.7,244.2l-1.9-23.7c84.7-31.3,119.7-129.8,81.5-210.4.4-1.6,19.6-11.2,21.1-10.1h0Z"/>
    <path class="st22" d="M175.27,318.57c.6.3,5.3,9,7.1,11.2,32.6,39.8,84.9,61.8,136.4,51.6l2.2,23.6c-68.7,14-142.4-24.3-173-86.4,4.4.9,25.2-1.3,27.3,0h0Z"/>
    <path class="st14" d="M204.87,240.27l-6.7,17.8-152.2-2.4c-.9-.9,3-14.4,6.5-14.2l152.4-1.2h0Z"/>
    <path class="st12" d="M93.37,291.27c-.6-.6,3.3-14.4,6.5-14.2,26.9-1,53.8-.2,80.7-1.1,2.8,0,11.4-3.2,12.3.6s-5.5,17.3-8.8,17.1c0,0-90.7-2.4-90.7-2.4Z"/>
    <path class="st20" d="M169.07,223.47l-86.4-3.9c3.1-8,1.7-12.3,11.4-13.5,16.9-2.1,42.2-.7,60.4-1.3s20-1.1,20.7,1.9l-6,16.9-.1-.1h0Z"/>
    <path class="st1" d="M356.97,226.27l-31.1,102.3-122.8.6c-1.8,0-3.9-.8-4.8-2.4-2.5-5,28.9-93.6,30.3-106.7-8.2-.2-17.4-.3-25.5-1.2s-13.6-1.1-14.9-2.8c-3-3.8,1.2-35.1,3-41.1s1.5-3.8,3.6-5.9c3.7-3.6,38-26.6,42.6-28.6,5.5-2.4,40.6-.7,48.7.1,14.6,1.5,7.3,6.5,6.5,16-1.5,19.1,19.4,19.9,30.1,8.8s5.7-14.1,9.8-19.9l42.5,1,8.4,2.3,24.9,27.2c.5,2.2-12,41.8-13.6,43.4-12,3.8-25.3,4-37.7,6.8v.1h0Z"/>
    <path class="st33" d="M216.17,316.17c-.4,0-2.2-1.7-1.3-2.5l30.4-102.5c-.5-6.1-19.3-3.8-24.4-4.2s-13.2-1.1-19.4-2.5c-.7-1.1,1.7-22.9,2.4-25.1,1.1-3.2,32.8-21.1,37.3-25.5,12.3-3.9,25.6,1.1,38.4-.2-5.7,36.5,38.9,43.2,56.3,16.5,1.9-2.9,3.6-9.2,4.8-10.6,2.5-3,29.2.8,34.7.9,3.2,5.1,16.8,15.2,17.8,20.2s-7.4,26.8-8.8,27.7c-10.4,3.1-23.8,2.2-33.9,4.9-1.8.5-3.3,1.2-4.3,2.8l-30.4,100.1h-99.6Z"/>
  </g>
</svg>